# xmcd
#
# Track frame offsets:
#	150
#	16606
#	33495
#	51500
#	69876
#	89421
#	112830
#	130171
#	149652
#	169235
#
# Disc length: 2467 seconds
#
# Revision: 0
# Processed by: cddbd v1.5.2PL0 Copyright (c) Steve Scherf et al.
# Submitted via: audiograbber 1.82.01
#
DISCID=8409a10a
DTITLE=Sass Jordan - Hot Gossip
DYEAR=2004
DGENRE=Rock
TTITLE0=Monday Morning
TTITLE1=So Long
TTITLE2=People Talk
TTITLE3=My Friend
TTITLE4=Waste Of Time
TTITLE5=Cinnamon
TTITLE6=I Spy
TTITLE7=Miracle
TTITLE8=I Need Help
TTITLE9=Forever
EXTD=
EXTT0=
EXTT1=
EXTT2=
EXTT3=
EXTT4=
EXTT5=
EXTT6=
EXTT7=
EXTT8=
EXTT9=
PLAYORDER=
